<?xml version="1.0" encoding="UTF-8" standalone="no"?>
<!DOCTYPE svg PUBLIC "-//W3C//DTD SVG 1.1//EN"
 "http://www.w3.org/Graphics/SVG/1.1/DTD/svg11.dtd">
<!-- Generated by graphviz version 2.40.1 (20161225.0304)
 -->
<!-- Title: %0 Pages: 1 -->
<svg width="142pt" height="188pt"
 viewBox="0.00 0.00 141.63 188.00" xmlns="http://www.w3.org/2000/svg" xmlns:xlink="http://www.w3.org/1999/xlink">
<g id="graph0" class="graph" transform="scale(1 1) rotate(0) translate(4 184)">
<title>%0</title>
<polygon fill="#ffffff" stroke="transparent" points="-4,4 -4,-184 137.6339,-184 137.6339,4 -4,4"/>
<!-- 1670250388016 -->
<g id="node1" class="node">
<title>1670250388016</title>
<ellipse fill="none" stroke="#000000" cx="30.817" cy="-18" rx="27" ry="18"/>
<text text-anchor="middle" x="30.817" y="-13.8" font-family="Times,serif" font-size="14.00" fill="#000000">a</text>
</g>
<!-- 1670250387248 -->
<g id="node2" class="node">
<title>1670250387248</title>
<ellipse fill="none" stroke="#000000" cx="102.817" cy="-18" rx="27" ry="18"/>
<text text-anchor="middle" x="102.817" y="-13.8" font-family="Times,serif" font-size="14.00" fill="#000000">b</text>
</g>
<!-- 1670250387776 -->
<g id="node3" class="node">
<title>1670250387776</title>
<ellipse fill="none" stroke="#000000" cx="66.817" cy="-90" rx="51.5804" ry="18"/>
<text text-anchor="middle" x="66.817" y="-85.8" font-family="Times,serif" font-size="14.00" fill="#000000">alternative</text>
</g>
<!-- 1670250387776&#45;&gt;1670250388016 -->
<g id="edge1" class="edge">
<title>1670250387776&#45;&gt;1670250388016</title>
<path fill="none" stroke="#000000" d="M57.9181,-72.2022C53.7147,-63.7955 48.6128,-53.5917 43.9744,-44.3149"/>
<polygon fill="#000000" stroke="#000000" points="46.9683,-42.4762 39.3656,-35.0972 40.7073,-45.6068 46.9683,-42.4762"/>
</g>
<!-- 1670250387776&#45;&gt;1670250387248 -->
<g id="edge2" class="edge">
<title>1670250387776&#45;&gt;1670250387248</title>
<path fill="none" stroke="#000000" d="M75.7158,-72.2022C79.9192,-63.7955 85.0211,-53.5917 89.6595,-44.3149"/>
<polygon fill="#000000" stroke="#000000" points="92.9266,-45.6068 94.2683,-35.0972 86.6657,-42.4762 92.9266,-45.6068"/>
</g>
<!-- 1670250387392 -->
<g id="node4" class="node">
<title>1670250387392</title>
<ellipse fill="none" stroke="#000000" cx="66.817" cy="-162" rx="66.6344" ry="18"/>
<text text-anchor="middle" x="66.817" y="-157.8" font-family="Times,serif" font-size="14.00" fill="#000000">any_repetition</text>
</g>
<!-- 1670250387392&#45;&gt;1670250387776 -->
<g id="edge3" class="edge">
<title>1670250387392&#45;&gt;1670250387776</title>
<path fill="none" stroke="#000000" d="M66.817,-143.8314C66.817,-136.131 66.817,-126.9743 66.817,-118.4166"/>
<polygon fill="#000000" stroke="#000000" points="70.3171,-118.4132 66.817,-108.4133 63.3171,-118.4133 70.3171,-118.4132"/>
</g>
</g>
</svg>
