<?xml version="1.0" encoding="UTF-8" standalone="no"?>
<!DOCTYPE svg PUBLIC "-//W3C//DTD SVG 1.1//EN"
 "http://www.w3.org/Graphics/SVG/1.1/DTD/svg11.dtd">
<!-- Generated by graphviz version 2.40.1 (20161225.0304)
 -->
<!-- Title: %0 Pages: 1 -->
<svg width="171pt" height="332pt"
 viewBox="0.00 0.00 170.83 332.00" xmlns="http://www.w3.org/2000/svg" xmlns:xlink="http://www.w3.org/1999/xlink">
<g id="graph0" class="graph" transform="scale(1 1) rotate(0) translate(4 328)">
<title>%0</title>
<polygon fill="#ffffff" stroke="transparent" points="-4,4 -4,-328 166.8346,-328 166.8346,4 -4,4"/>
<!-- 0 -->
<g id="node1" class="node">
<title>0</title>
<ellipse fill="#dee0e6" stroke="#000000" cx="117.0341" cy="-306" rx="27" ry="18"/>
<text text-anchor="middle" x="117.0341" y="-301.8" font-family="Times,serif" font-size="14.00" fill="#000000">0</text>
</g>
<!-- 7 -->
<g id="node2" class="node">
<title>7</title>
<ellipse fill="#1ac0c6" stroke="#000000" cx="41.0341" cy="-234" rx="30.7401" ry="18"/>
<text text-anchor="middle" x="41.0341" y="-229.8" font-family="Times,serif" font-size="14.00" fill="#000000">7 : ✓</text>
</g>
<!-- 0&#45;&gt;7 -->
<g id="edge1" class="edge">
<title>0&#45;&gt;7</title>
<path fill="none" stroke="#000000" d="M101.2868,-291.0816C90.7297,-281.0801 76.6347,-267.7269 64.7317,-256.4504"/>
<polygon fill="#000000" stroke="#000000" points="66.9522,-253.7327 57.2855,-249.3961 62.1379,-258.8144 66.9522,-253.7327"/>
</g>
<!-- 1 -->
<g id="node3" class="node">
<title>1</title>
<ellipse fill="#dee0e6" stroke="#000000" cx="117.0341" cy="-234" rx="27" ry="18"/>
<text text-anchor="middle" x="117.0341" y="-229.8" font-family="Times,serif" font-size="14.00" fill="#000000">1</text>
</g>
<!-- 0&#45;&gt;1 -->
<g id="edge2" class="edge">
<title>0&#45;&gt;1</title>
<path fill="none" stroke="#000000" d="M117.0341,-287.8314C117.0341,-280.131 117.0341,-270.9743 117.0341,-262.4166"/>
<polygon fill="#000000" stroke="#000000" points="120.5342,-262.4132 117.0341,-252.4133 113.5342,-262.4133 120.5342,-262.4132"/>
</g>
<!-- 5 -->
<g id="node4" class="node">
<title>5</title>
<ellipse fill="#ffa822" stroke="#000000" cx="33.0341" cy="-162" rx="33.0682" ry="18"/>
<text text-anchor="middle" x="33.0341" y="-157.8" font-family="Times,serif" font-size="14.00" fill="#000000">5 : 98</text>
</g>
<!-- 1&#45;&gt;5 -->
<g id="edge3" class="edge">
<title>1&#45;&gt;5</title>
<path fill="none" stroke="#000000" d="M100.4384,-219.7751C88.5277,-209.566 72.251,-195.6145 58.6763,-183.979"/>
<polygon fill="#000000" stroke="#000000" points="60.9197,-181.2922 51.0493,-177.4417 56.3641,-186.607 60.9197,-181.2922"/>
</g>
<!-- 2 -->
<g id="node5" class="node">
<title>2</title>
<ellipse fill="#ffa822" stroke="#000000" cx="117.0341" cy="-162" rx="33.0682" ry="18"/>
<text text-anchor="middle" x="117.0341" y="-157.8" font-family="Times,serif" font-size="14.00" fill="#000000">2 : 97</text>
</g>
<!-- 1&#45;&gt;2 -->
<g id="edge4" class="edge">
<title>1&#45;&gt;2</title>
<path fill="none" stroke="#000000" d="M117.0341,-215.8314C117.0341,-208.131 117.0341,-198.9743 117.0341,-190.4166"/>
<polygon fill="#000000" stroke="#000000" points="120.5342,-190.4132 117.0341,-180.4133 113.5342,-190.4133 120.5342,-190.4132"/>
</g>
<!-- 6 -->
<g id="node8" class="node">
<title>6</title>
<ellipse fill="#2792ce" stroke="#000000" cx="39.0341" cy="-90" rx="27" ry="18"/>
<text text-anchor="middle" x="39.0341" y="-85.8" font-family="Times,serif" font-size="14.00" fill="#000000">6</text>
</g>
<!-- 5&#45;&gt;6 -->
<g id="edge8" class="edge">
<title>5&#45;&gt;6</title>
<path fill="none" stroke="#000000" d="M34.5481,-143.8314C35.1898,-136.131 35.9529,-126.9743 36.666,-118.4166"/>
<polygon fill="#000000" stroke="#000000" points="40.157,-118.6694 37.4996,-108.4133 33.1812,-118.088 40.157,-118.6694"/>
</g>
<!-- 3 -->
<g id="node6" class="node">
<title>3</title>
<ellipse fill="#2792ce" stroke="#000000" cx="117.0341" cy="-90" rx="27" ry="18"/>
<text text-anchor="middle" x="117.0341" y="-85.8" font-family="Times,serif" font-size="14.00" fill="#000000">3</text>
</g>
<!-- 2&#45;&gt;3 -->
<g id="edge5" class="edge">
<title>2&#45;&gt;3</title>
<path fill="none" stroke="#000000" d="M117.0341,-143.8314C117.0341,-136.131 117.0341,-126.9743 117.0341,-118.4166"/>
<polygon fill="#000000" stroke="#000000" points="120.5342,-118.4132 117.0341,-108.4133 113.5342,-118.4133 120.5342,-118.4132"/>
</g>
<!-- 4 -->
<g id="node7" class="node">
<title>4</title>
<ellipse fill="#2792ce" stroke="#000000" cx="117.0341" cy="-18" rx="27" ry="18"/>
<text text-anchor="middle" x="117.0341" y="-13.8" font-family="Times,serif" font-size="14.00" fill="#000000">4</text>
</g>
<!-- 3&#45;&gt;4 -->
<g id="edge6" class="edge">
<title>3&#45;&gt;4</title>
<path fill="none" stroke="#000000" d="M117.0341,-71.8314C117.0341,-64.131 117.0341,-54.9743 117.0341,-46.4166"/>
<polygon fill="#000000" stroke="#000000" points="120.5342,-46.4132 117.0341,-36.4133 113.5342,-46.4133 120.5342,-46.4132"/>
</g>
<!-- 4&#45;&gt;0 -->
<g id="edge7" class="edge">
<title>4&#45;&gt;0</title>
<path fill="none" stroke="#000000" d="M130.7432,-33.8503C138.718,-44.0386 148.1363,-57.9567 153.0341,-72 163.6085,-102.3198 157.6996,-111.9168 159.0341,-144 161.032,-192.0325 168.8653,-206.6074 153.0341,-252 149.3607,-262.5325 143.1446,-272.9945 136.9018,-281.8655"/>
<polygon fill="#000000" stroke="#000000" points="133.9005,-280.0362 130.7432,-290.1497 139.5182,-284.2125 133.9005,-280.0362"/>
</g>
<!-- 6&#45;&gt;4 -->
<g id="edge9" class="edge">
<title>6&#45;&gt;4</title>
<path fill="none" stroke="#000000" d="M55.1957,-75.0816C66.3555,-64.7802 81.3674,-50.923 93.8056,-39.4417"/>
<polygon fill="#000000" stroke="#000000" points="96.1859,-42.0076 101.16,-32.653 91.4379,-36.864 96.1859,-42.0076"/>
</g>
</g>
</svg>
