<?xml version="1.0" encoding="UTF-8" standalone="no"?>
<!DOCTYPE svg PUBLIC "-//W3C//DTD SVG 1.1//EN"
 "http://www.w3.org/Graphics/SVG/1.1/DTD/svg11.dtd">
<!-- Generated by graphviz version 2.40.1 (20161225.0304)
 -->
<!-- Title: %0 Pages: 1 -->
<svg width="244pt" height="260pt"
 viewBox="0.00 0.00 244.17 260.00" xmlns="http://www.w3.org/2000/svg" xmlns:xlink="http://www.w3.org/1999/xlink">
<g id="graph0" class="graph" transform="scale(1 1) rotate(0) translate(4 256)">
<title>%0</title>
<polygon fill="#ffffff" stroke="transparent" points="-4,4 -4,-256 240.165,-256 240.165,4 -4,4"/>
<!-- 0 -->
<g id="node1" class="node">
<title>0</title>
<ellipse fill="#dee0e6" stroke="#000000" cx="177.0341" cy="-234" rx="27" ry="18"/>
<text text-anchor="middle" x="177.0341" y="-229.8" font-family="Times,serif" font-size="14.00" fill="#000000">0</text>
</g>
<!-- 3 -->
<g id="node2" class="node">
<title>3</title>
<ellipse fill="#dee0e6" stroke="#000000" cx="69.0341" cy="-162" rx="27" ry="18"/>
<text text-anchor="middle" x="69.0341" y="-157.8" font-family="Times,serif" font-size="14.00" fill="#000000">3</text>
</g>
<!-- 0&#45;&gt;3 -->
<g id="edge1" class="edge">
<title>0&#45;&gt;3</title>
<path fill="none" stroke="#000000" d="M157.7258,-221.1278C140.6786,-209.763 115.6322,-193.0654 96.4996,-180.3104"/>
<polygon fill="#000000" stroke="#000000" points="98.4371,-177.3956 88.1751,-174.7607 94.5542,-183.2199 98.4371,-177.3956"/>
</g>
<!-- 1 -->
<g id="node3" class="node">
<title>1</title>
<ellipse fill="#ffa822" stroke="#000000" cx="147.0341" cy="-162" rx="33.0682" ry="18"/>
<text text-anchor="middle" x="147.0341" y="-157.8" font-family="Times,serif" font-size="14.00" fill="#000000">1 : 98</text>
</g>
<!-- 0&#45;&gt;1 -->
<g id="edge2" class="edge">
<title>0&#45;&gt;1</title>
<path fill="none" stroke="#000000" d="M169.7719,-216.5708C166.359,-208.3798 162.2101,-198.4225 158.3954,-189.2671"/>
<polygon fill="#000000" stroke="#000000" points="161.5147,-187.6535 154.4378,-179.7689 155.0532,-190.3458 161.5147,-187.6535"/>
</g>
<!-- 5 -->
<g id="node5" class="node">
<title>5</title>
<ellipse fill="#ffa822" stroke="#000000" cx="33.0341" cy="-90" rx="33.0682" ry="18"/>
<text text-anchor="middle" x="33.0341" y="-85.8" font-family="Times,serif" font-size="14.00" fill="#000000">5 : 97</text>
</g>
<!-- 3&#45;&gt;5 -->
<g id="edge5" class="edge">
<title>3&#45;&gt;5</title>
<path fill="none" stroke="#000000" d="M60.3195,-144.5708C56.1056,-136.1431 50.9568,-125.8455 46.2718,-116.4755"/>
<polygon fill="#000000" stroke="#000000" points="49.3959,-114.8973 41.7932,-107.5182 43.1349,-118.0278 49.3959,-114.8973"/>
</g>
<!-- 4 -->
<g id="node6" class="node">
<title>4</title>
<ellipse fill="#1ac0c6" stroke="#000000" cx="115.0341" cy="-90" rx="30.7401" ry="18"/>
<text text-anchor="middle" x="115.0341" y="-85.8" font-family="Times,serif" font-size="14.00" fill="#000000">4 : ✓</text>
</g>
<!-- 3&#45;&gt;4 -->
<g id="edge6" class="edge">
<title>3&#45;&gt;4</title>
<path fill="none" stroke="#000000" d="M79.703,-145.3008C85.3114,-136.5224 92.3086,-125.5703 98.5929,-115.7339"/>
<polygon fill="#000000" stroke="#000000" points="101.669,-117.42 104.1035,-107.1086 95.7702,-113.6512 101.669,-117.42"/>
</g>
<!-- 2 -->
<g id="node4" class="node">
<title>2</title>
<ellipse fill="#2792ce" stroke="#000000" cx="191.0341" cy="-90" rx="27" ry="18"/>
<text text-anchor="middle" x="191.0341" y="-85.8" font-family="Times,serif" font-size="14.00" fill="#000000">2</text>
</g>
<!-- 1&#45;&gt;2 -->
<g id="edge3" class="edge">
<title>1&#45;&gt;2</title>
<path fill="none" stroke="#000000" d="M157.6852,-144.5708C163.0048,-135.8661 169.5434,-125.1665 175.4174,-115.5546"/>
<polygon fill="#000000" stroke="#000000" points="178.5559,-117.1308 180.7839,-106.7729 172.5829,-113.4807 178.5559,-117.1308"/>
</g>
<!-- 2&#45;&gt;0 -->
<g id="edge4" class="edge">
<title>2&#45;&gt;0</title>
<path fill="none" stroke="#000000" d="M191.6688,-108.0035C192.0687,-126.225 192.0386,-155.175 189.0341,-180 187.9955,-188.5807 186.2041,-197.8023 184.3174,-206.1536"/>
<polygon fill="#000000" stroke="#000000" points="180.8481,-205.6129 181.9263,-216.1528 187.6562,-207.241 180.8481,-205.6129"/>
</g>
<!-- 6 -->
<g id="node7" class="node">
<title>6</title>
<ellipse fill="#2792ce" stroke="#000000" cx="139.0341" cy="-18" rx="27" ry="18"/>
<text text-anchor="middle" x="139.0341" y="-13.8" font-family="Times,serif" font-size="14.00" fill="#000000">6</text>
</g>
<!-- 5&#45;&gt;6 -->
<g id="edge7" class="edge">
<title>5&#45;&gt;6</title>
<path fill="none" stroke="#000000" d="M53.7236,-75.9468C70.1887,-64.7629 93.3815,-49.0093 111.4293,-36.7504"/>
<polygon fill="#000000" stroke="#000000" points="113.5183,-39.5626 119.8239,-31.0484 109.5851,-33.772 113.5183,-39.5626"/>
</g>
<!-- 6&#45;&gt;0 -->
<g id="edge8" class="edge">
<title>6&#45;&gt;0</title>
<path fill="none" stroke="#000000" d="M163.8031,-25.5679C184.8237,-33.4535 213.6409,-48.0677 227.0341,-72 252.3688,-117.2707 219.1188,-176.9938 195.9438,-209.8107"/>
<polygon fill="#000000" stroke="#000000" points="193.0843,-207.7918 190.0213,-217.9343 198.7407,-211.9156 193.0843,-207.7918"/>
</g>
</g>
</svg>
