<?xml version="1.0" encoding="UTF-8" standalone="no"?>
<!DOCTYPE svg PUBLIC "-//W3C//DTD SVG 1.1//EN"
 "http://www.w3.org/Graphics/SVG/1.1/DTD/svg11.dtd">
<!-- Generated by graphviz version 2.40.1 (20161225.0304)
 -->
<!-- Title: %0 Pages: 1 -->
<svg width="238pt" height="260pt"
 viewBox="0.00 0.00 238.49 260.00" xmlns="http://www.w3.org/2000/svg" xmlns:xlink="http://www.w3.org/1999/xlink">
<g id="graph0" class="graph" transform="scale(1 1) rotate(0) translate(4 256)">
<title>%0</title>
<polygon fill="#ffffff" stroke="transparent" points="-4,4 -4,-256 234.4889,-256 234.4889,4 -4,4"/>
<!-- 1889418738800 -->
<g id="node1" class="node">
<title>1889418738800</title>
<ellipse fill="#dee0e6" stroke="#000000" cx="115.7444" cy="-234" rx="36.5747" ry="18"/>
<text text-anchor="middle" x="115.7444" y="-229.8" font-family="Times,serif" font-size="14.00" fill="#000000">SPLIT</text>
</g>
<!-- 1889418737792 -->
<g id="node2" class="node">
<title>1889418737792</title>
<ellipse fill="#ffa822" stroke="#000000" cx="28.7444" cy="-162" rx="27" ry="18"/>
<text text-anchor="middle" x="28.7444" y="-157.8" font-family="Times,serif" font-size="14.00" fill="#000000">b</text>
</g>
<!-- 1889418738800&#45;&gt;1889418737792 -->
<g id="edge1" class="edge">
<title>1889418738800&#45;&gt;1889418737792</title>
<path fill="none" stroke="#000000" d="M96.8667,-218.3771C84.2854,-207.965 67.6068,-194.1619 53.9018,-182.8199"/>
<polygon fill="#000000" stroke="#000000" points="55.7515,-179.8076 45.8161,-176.1282 51.2885,-185.2003 55.7515,-179.8076"/>
</g>
<!-- 1889418738944 -->
<g id="node3" class="node">
<title>1889418738944</title>
<ellipse fill="#dee0e6" stroke="#000000" cx="148.7444" cy="-162" rx="36.5747" ry="18"/>
<text text-anchor="middle" x="148.7444" y="-157.8" font-family="Times,serif" font-size="14.00" fill="#000000">SPLIT</text>
</g>
<!-- 1889418738800&#45;&gt;1889418738944 -->
<g id="edge2" class="edge">
<title>1889418738800&#45;&gt;1889418738944</title>
<path fill="none" stroke="#000000" d="M123.9018,-216.2022C127.6982,-207.9192 132.2942,-197.8915 136.4956,-188.7248"/>
<polygon fill="#000000" stroke="#000000" points="139.6961,-190.142 140.681,-179.593 133.3326,-187.2254 139.6961,-190.142"/>
</g>
<!-- 1889418738368 -->
<g id="node4" class="node">
<title>1889418738368</title>
<ellipse fill="#2792ce" stroke="#000000" cx="28.7444" cy="-90" rx="28.991" ry="18"/>
<text text-anchor="middle" x="28.7444" y="-85.8" font-family="Times,serif" font-size="14.00" fill="#000000">JMP</text>
</g>
<!-- 1889418737792&#45;&gt;1889418738368 -->
<g id="edge3" class="edge">
<title>1889418737792&#45;&gt;1889418738368</title>
<path fill="none" stroke="#000000" d="M28.7444,-143.8314C28.7444,-136.131 28.7444,-126.9743 28.7444,-118.4166"/>
<polygon fill="#000000" stroke="#000000" points="32.2445,-118.4132 28.7444,-108.4133 25.2445,-118.4133 32.2445,-118.4132"/>
</g>
<!-- 1889418737552 -->
<g id="node5" class="node">
<title>1889418737552</title>
<ellipse fill="#1ac0c6" stroke="#000000" cx="102.7444" cy="-90" rx="27" ry="18"/>
<text text-anchor="middle" x="102.7444" y="-85.8" font-family="Times,serif" font-size="14.00" fill="#000000">✓</text>
</g>
<!-- 1889418738944&#45;&gt;1889418737552 -->
<g id="edge5" class="edge">
<title>1889418738944&#45;&gt;1889418737552</title>
<path fill="none" stroke="#000000" d="M137.6091,-144.5708C131.9904,-135.7763 125.0709,-124.9457 118.8813,-115.2577"/>
<polygon fill="#000000" stroke="#000000" points="121.7939,-113.3155 113.4605,-106.7729 115.895,-117.0843 121.7939,-113.3155"/>
</g>
<!-- 1889418737072 -->
<g id="node6" class="node">
<title>1889418737072</title>
<ellipse fill="#ffa822" stroke="#000000" cx="174.7444" cy="-90" rx="27" ry="18"/>
<text text-anchor="middle" x="174.7444" y="-85.8" font-family="Times,serif" font-size="14.00" fill="#000000">a</text>
</g>
<!-- 1889418738944&#45;&gt;1889418737072 -->
<g id="edge6" class="edge">
<title>1889418738944&#45;&gt;1889418737072</title>
<path fill="none" stroke="#000000" d="M155.1714,-144.2022C158.131,-136.0064 161.7075,-126.1024 164.9892,-117.0145"/>
<polygon fill="#000000" stroke="#000000" points="168.2868,-118.1874 168.3914,-107.593 161.703,-115.8098 168.2868,-118.1874"/>
</g>
<!-- 1889418738368&#45;&gt;1889418738800 -->
<g id="edge4" class="edge">
<title>1889418738368&#45;&gt;1889418738800</title>
<path fill="none" stroke="#000000" d="M40.4134,-106.8199C47.6204,-117.3732 56.9481,-131.3343 64.7444,-144 77.7317,-165.0986 91.5318,-189.5932 101.4973,-207.6969"/>
<polygon fill="#000000" stroke="#000000" points="98.4613,-209.4398 106.3344,-216.5296 104.6009,-206.0775 98.4613,-209.4398"/>
</g>
<!-- 1889418738128 -->
<g id="node7" class="node">
<title>1889418738128</title>
<ellipse fill="#2792ce" stroke="#000000" cx="201.7444" cy="-18" rx="28.991" ry="18"/>
<text text-anchor="middle" x="201.7444" y="-13.8" font-family="Times,serif" font-size="14.00" fill="#000000">JMP</text>
</g>
<!-- 1889418737072&#45;&gt;1889418738128 -->
<g id="edge7" class="edge">
<title>1889418737072&#45;&gt;1889418738128</title>
<path fill="none" stroke="#000000" d="M181.4186,-72.2022C184.4921,-64.0064 188.2061,-54.1024 191.614,-45.0145"/>
<polygon fill="#000000" stroke="#000000" points="194.9129,-46.1853 195.1471,-35.593 188.3586,-43.7274 194.9129,-46.1853"/>
</g>
<!-- 1889418738128&#45;&gt;1889418738800 -->
<g id="edge8" class="edge">
<title>1889418738128&#45;&gt;1889418738800</title>
<path fill="none" stroke="#000000" d="M206.5661,-35.918C214.0574,-67.9227 224.7217,-135.7026 194.7444,-180 184.159,-195.6421 167.3952,-208.0409 152.0282,-216.9921"/>
<polygon fill="#000000" stroke="#000000" points="150.2646,-213.9677 143.199,-221.8625 153.6457,-220.097 150.2646,-213.9677"/>
</g>
</g>
</svg>
