<?xml version="1.0" encoding="UTF-8" standalone="no"?>
<!DOCTYPE svg PUBLIC "-//W3C//DTD SVG 1.1//EN"
 "http://www.w3.org/Graphics/SVG/1.1/DTD/svg11.dtd">
<!-- Generated by graphviz version 2.40.1 (20161225.0304)
 -->
<!-- Title: %0 Pages: 1 -->
<svg width="178pt" height="332pt"
 viewBox="0.00 0.00 178.00 332.00" xmlns="http://www.w3.org/2000/svg" xmlns:xlink="http://www.w3.org/1999/xlink">
<g id="graph0" class="graph" transform="scale(1 1) rotate(0) translate(4 328)">
<title>%0</title>
<polygon fill="#ffffff" stroke="transparent" points="-4,4 -4,-328 174.0042,-328 174.0042,4 -4,4"/>
<!-- 1670250387728 -->
<g id="node1" class="node">
<title>1670250387728</title>
<ellipse fill="#dee0e6" stroke="#000000" cx="118.7868" cy="-306" rx="36.5747" ry="18"/>
<text text-anchor="middle" x="118.7868" y="-301.8" font-family="Times,serif" font-size="14.00" fill="#000000">SPLIT</text>
</g>
<!-- 1670250387056 -->
<g id="node2" class="node">
<title>1670250387056</title>
<ellipse fill="#dee0e6" stroke="#000000" cx="36.7868" cy="-234" rx="36.5747" ry="18"/>
<text text-anchor="middle" x="36.7868" y="-229.8" font-family="Times,serif" font-size="14.00" fill="#000000">SPLIT</text>
</g>
<!-- 1670250387728&#45;&gt;1670250387056 -->
<g id="edge1" class="edge">
<title>1670250387728&#45;&gt;1670250387056</title>
<path fill="none" stroke="#000000" d="M100.5883,-290.0209C89.4412,-280.2332 74.997,-267.5505 62.6718,-256.7284"/>
<polygon fill="#000000" stroke="#000000" points="64.7581,-253.9025 54.9343,-249.9345 60.1394,-259.1626 64.7581,-253.9025"/>
</g>
<!-- 1670250387488 -->
<g id="node3" class="node">
<title>1670250387488</title>
<ellipse fill="#1ac0c6" stroke="#000000" cx="118.7868" cy="-234" rx="27" ry="18"/>
<text text-anchor="middle" x="118.7868" y="-229.8" font-family="Times,serif" font-size="14.00" fill="#000000">✓</text>
</g>
<!-- 1670250387728&#45;&gt;1670250387488 -->
<g id="edge2" class="edge">
<title>1670250387728&#45;&gt;1670250387488</title>
<path fill="none" stroke="#000000" d="M118.7868,-287.8314C118.7868,-280.131 118.7868,-270.9743 118.7868,-262.4166"/>
<polygon fill="#000000" stroke="#000000" points="122.2869,-262.4132 118.7868,-252.4133 115.2869,-262.4133 122.2869,-262.4132"/>
</g>
<!-- 1670250387008 -->
<g id="node4" class="node">
<title>1670250387008</title>
<ellipse fill="#ffa822" stroke="#000000" cx="36.7868" cy="-162" rx="27" ry="18"/>
<text text-anchor="middle" x="36.7868" y="-157.8" font-family="Times,serif" font-size="14.00" fill="#000000">a</text>
</g>
<!-- 1670250387056&#45;&gt;1670250387008 -->
<g id="edge3" class="edge">
<title>1670250387056&#45;&gt;1670250387008</title>
<path fill="none" stroke="#000000" d="M36.7868,-215.8314C36.7868,-208.131 36.7868,-198.9743 36.7868,-190.4166"/>
<polygon fill="#000000" stroke="#000000" points="40.2869,-190.4132 36.7868,-180.4133 33.2869,-190.4133 40.2869,-190.4132"/>
</g>
<!-- 1670250387920 -->
<g id="node5" class="node">
<title>1670250387920</title>
<ellipse fill="#ffa822" stroke="#000000" cx="110.7868" cy="-162" rx="27" ry="18"/>
<text text-anchor="middle" x="110.7868" y="-157.8" font-family="Times,serif" font-size="14.00" fill="#000000">b</text>
</g>
<!-- 1670250387056&#45;&gt;1670250387920 -->
<g id="edge4" class="edge">
<title>1670250387056&#45;&gt;1670250387920</title>
<path fill="none" stroke="#000000" d="M53.5785,-217.6621C63.6955,-207.8185 76.7202,-195.1458 87.7856,-184.3795"/>
<polygon fill="#000000" stroke="#000000" points="90.3469,-186.7707 95.0735,-177.2886 85.4654,-181.7536 90.3469,-186.7707"/>
</g>
<!-- 1670250388352 -->
<g id="node6" class="node">
<title>1670250388352</title>
<ellipse fill="#2792ce" stroke="#000000" cx="36.7868" cy="-90" rx="28.991" ry="18"/>
<text text-anchor="middle" x="36.7868" y="-85.8" font-family="Times,serif" font-size="14.00" fill="#000000">JMP</text>
</g>
<!-- 1670250387008&#45;&gt;1670250388352 -->
<g id="edge5" class="edge">
<title>1670250387008&#45;&gt;1670250388352</title>
<path fill="none" stroke="#000000" d="M36.7868,-143.8314C36.7868,-136.131 36.7868,-126.9743 36.7868,-118.4166"/>
<polygon fill="#000000" stroke="#000000" points="40.2869,-118.4132 36.7868,-108.4133 33.2869,-118.4133 40.2869,-118.4132"/>
</g>
<!-- 1670250388544 -->
<g id="node8" class="node">
<title>1670250388544</title>
<ellipse fill="#2792ce" stroke="#000000" cx="111.7868" cy="-90" rx="28.991" ry="18"/>
<text text-anchor="middle" x="111.7868" y="-85.8" font-family="Times,serif" font-size="14.00" fill="#000000">JMP</text>
</g>
<!-- 1670250387920&#45;&gt;1670250388544 -->
<g id="edge8" class="edge">
<title>1670250387920&#45;&gt;1670250388544</title>
<path fill="none" stroke="#000000" d="M111.0391,-143.8314C111.146,-136.131 111.2732,-126.9743 111.3921,-118.4166"/>
<polygon fill="#000000" stroke="#000000" points="114.8917,-118.4609 111.531,-108.4133 107.8924,-118.3637 114.8917,-118.4609"/>
</g>
<!-- 1670250388736 -->
<g id="node7" class="node">
<title>1670250388736</title>
<ellipse fill="#2792ce" stroke="#000000" cx="111.7868" cy="-18" rx="28.991" ry="18"/>
<text text-anchor="middle" x="111.7868" y="-13.8" font-family="Times,serif" font-size="14.00" fill="#000000">JMP</text>
</g>
<!-- 1670250388352&#45;&gt;1670250388736 -->
<g id="edge6" class="edge">
<title>1670250388352&#45;&gt;1670250388736</title>
<path fill="none" stroke="#000000" d="M52.6923,-74.7307C63.1331,-64.7075 76.9616,-51.4321 88.6165,-40.2434"/>
<polygon fill="#000000" stroke="#000000" points="91.1141,-42.6976 95.9041,-33.2473 86.2663,-37.6478 91.1141,-42.6976"/>
</g>
<!-- 1670250388736&#45;&gt;1670250387728 -->
<g id="edge7" class="edge">
<title>1670250388736&#45;&gt;1670250387728</title>
<path fill="none" stroke="#000000" d="M126.5061,-33.6381C135.0174,-43.7465 144.9699,-57.6552 149.7868,-72 184.2696,-174.6925 165.2067,-217.5854 154.7868,-252 151.6523,-262.3525 145.8061,-272.5344 139.7229,-281.2178"/>
<polygon fill="#000000" stroke="#000000" points="136.8281,-279.2449 133.6523,-289.3525 142.4381,-283.4315 136.8281,-279.2449"/>
</g>
<!-- 1670250388544&#45;&gt;1670250388736 -->
<g id="edge9" class="edge">
<title>1670250388544&#45;&gt;1670250388736</title>
<path fill="none" stroke="#000000" d="M111.7868,-71.8314C111.7868,-64.131 111.7868,-54.9743 111.7868,-46.4166"/>
<polygon fill="#000000" stroke="#000000" points="115.2869,-46.4132 111.7868,-36.4133 108.2869,-46.4133 115.2869,-46.4132"/>
</g>
</g>
</svg>
